<?xml version="1.0" encoding="utf-8"?>
<svg xmlns="http://www.w3.org/2000/svg" xmlns:xlink="http://www.w3.org/1999/xlink" style="margin: auto; background: none; display: block; shape-rendering: auto;" width="100px" height="100px" viewBox="0 0 100 100" preserveAspectRatio="xMidYMid">
<g transform="rotate(0 50 50)">
  <rect x="40" y="5" rx="6" ry="6" width="20" height="20" fill="#9fb943">
    <animate attributeName="opacity" values="1;0" keyTimes="0;1" dur="1.1111111111111112s" begin="-1.0416666666666667s" repeatCount="indefinite"></animate>
  </rect>
</g><g transform="rotate(22.5 50 50)">
  <rect x="40" y="5" rx="6" ry="6" width="20" height="20" fill="#607e37">
    <animate attributeName="opacity" values="1;0" keyTimes="0;1" dur="1.1111111111111112s" begin="-0.9722222222222222s" repeatCount="indefinite"></animate>
  </rect>
</g><g transform="rotate(45 50 50)">
  <rect x="40" y="5" rx="6" ry="6" width="20" height="20" fill="#b6c89f">
    <animate attributeName="opacity" values="1;0" keyTimes="0;1" dur="1.1111111111111112s" begin="-0.9027777777777778s" repeatCount="indefinite"></animate>
  </rect>
</g><g transform="rotate(67.5 50 50)">
  <rect x="40" y="5" rx="6" ry="6" width="20" height="20" fill="#262d1e">
    <animate attributeName="opacity" values="1;0" keyTimes="0;1" dur="1.1111111111111112s" begin="-0.8333333333333333s" repeatCount="indefinite"></animate>
  </rect>
</g><g transform="rotate(90 50 50)">
  <rect x="40" y="5" rx="6" ry="6" width="20" height="20" fill="#345530">
    <animate attributeName="opacity" values="1;0" keyTimes="0;1" dur="1.1111111111111112s" begin="-0.7638888888888888s" repeatCount="indefinite"></animate>
  </rect>
</g><g transform="rotate(112.5 50 50)">
  <rect x="40" y="5" rx="6" ry="6" width="20" height="20" fill="#3b673f">
    <animate attributeName="opacity" values="1;0" keyTimes="0;1" dur="1.1111111111111112s" begin="-0.6944444444444444s" repeatCount="indefinite"></animate>
  </rect>
</g><g transform="rotate(135 50 50)">
  <rect x="40" y="5" rx="6" ry="6" width="20" height="20" fill="#5a8662">
    <animate attributeName="opacity" values="1;0" keyTimes="0;1" dur="1.1111111111111112s" begin="-0.625s" repeatCount="indefinite"></animate>
  </rect>
</g><g transform="rotate(157.5 50 50)">
  <rect x="40" y="5" rx="6" ry="6" width="20" height="20" fill="#9fb943">
    <animate attributeName="opacity" values="1;0" keyTimes="0;1" dur="1.1111111111111112s" begin="-0.5555555555555556s" repeatCount="indefinite"></animate>
  </rect>
</g><g transform="rotate(180 50 50)">
  <rect x="40" y="5" rx="6" ry="6" width="20" height="20" fill="#607e37">
    <animate attributeName="opacity" values="1;0" keyTimes="0;1" dur="1.1111111111111112s" begin="-0.4861111111111111s" repeatCount="indefinite"></animate>
  </rect>
</g><g transform="rotate(202.5 50 50)">
  <rect x="40" y="5" rx="6" ry="6" width="20" height="20" fill="#b6c89f">
    <animate attributeName="opacity" values="1;0" keyTimes="0;1" dur="1.1111111111111112s" begin="-0.41666666666666663s" repeatCount="indefinite"></animate>
  </rect>
</g><g transform="rotate(225 50 50)">
  <rect x="40" y="5" rx="6" ry="6" width="20" height="20" fill="#262d1e">
    <animate attributeName="opacity" values="1;0" keyTimes="0;1" dur="1.1111111111111112s" begin="-0.3472222222222222s" repeatCount="indefinite"></animate>
  </rect>
</g><g transform="rotate(247.5 50 50)">
  <rect x="40" y="5" rx="6" ry="6" width="20" height="20" fill="#345530">
    <animate attributeName="opacity" values="1;0" keyTimes="0;1" dur="1.1111111111111112s" begin="-0.2777777777777778s" repeatCount="indefinite"></animate>
  </rect>
</g><g transform="rotate(270 50 50)">
  <rect x="40" y="5" rx="6" ry="6" width="20" height="20" fill="#3b673f">
    <animate attributeName="opacity" values="1;0" keyTimes="0;1" dur="1.1111111111111112s" begin="-0.20833333333333331s" repeatCount="indefinite"></animate>
  </rect>
</g><g transform="rotate(292.5 50 50)">
  <rect x="40" y="5" rx="6" ry="6" width="20" height="20" fill="#5a8662">
    <animate attributeName="opacity" values="1;0" keyTimes="0;1" dur="1.1111111111111112s" begin="-0.1388888888888889s" repeatCount="indefinite"></animate>
  </rect>
</g><g transform="rotate(315 50 50)">
  <rect x="40" y="5" rx="6" ry="6" width="20" height="20" fill="#9fb943">
    <animate attributeName="opacity" values="1;0" keyTimes="0;1" dur="1.1111111111111112s" begin="-0.06944444444444445s" repeatCount="indefinite"></animate>
  </rect>
</g><g transform="rotate(337.5 50 50)">
  <rect x="40" y="5" rx="6" ry="6" width="20" height="20" fill="#607e37">
    <animate attributeName="opacity" values="1;0" keyTimes="0;1" dur="1.1111111111111112s" begin="0s" repeatCount="indefinite"></animate>
  </rect>
</g>
<!-- [ldio] generated by https://loading.io/ --></svg>